# xmcd
#
# Track frame offsets: 
#        150
#        13489
#        32358
#        46636
#        69805
#        78145
#        108314
#        128350
#        150611
#        170287
#
# Disc length: 2536 seconds
#
# Revision: 0
# Processed by: cddbd v1.5.2PL0 Copyright (c) Steve Scherf et al.
# Submitted via: ExactAudioCopy v0.99pb3
#
DISCID=6209e60a
DTITLE=Bring the Mourning On - Ukiah [DigiCD]
DYEAR=2012
DGENRE=Americana
TTITLE0=Leaving
TTITLE1=Fail
TTITLE2=When
TTITLE3=Oh
TTITLE4=Cold
TTITLE5=If You Want me to Go
TTITLE6=Smile
TTITLE7=Pass
TTITLE8=Times are Passing By
TTITLE9=Escape
EXTD=
EXTT0=
EXTT1=
EXTT2=
EXTT3=
EXTT4=
EXTT5=
EXTT6=
EXTT7=
EXTT8=
EXTT9=
PLAYORDER=
